<?xml version="1.0" encoding="utf-8"?>
<!-- Generator: Adobe Illustrator 19.0.0, SVG Export Plug-In . SVG Version: 6.00 Build 0)  -->
<!DOCTYPE svg PUBLIC "-//W3C//DTD SVG 1.1//EN" "http://www.w3.org/Graphics/SVG/1.1/DTD/svg11.dtd">
<svg version="1.1" id="Layer_1" xmlns="http://www.w3.org/2000/svg" xmlns:xlink="http://www.w3.org/1999/xlink" x="0px" y="0px"
	 viewBox="0 0 500 500" enable-background="new 0 0 500 500" xml:space="preserve">
<g id="XMLID_4_">
	<g id="XMLID_5_">
		<g id="XMLID_9_">
			<path id="XMLID_10_" fill="#00ACEE" d="M51.8,421.4V78.6H125v15.9H70.3v311H125v15.9H51.8z"/>
		</g>
		<g id="XMLID_6_">
			<path id="XMLID_7_" fill="#00ACEE" d="M448.2,78.6v342.9H375v-15.9h54.6v-311H375V78.6H448.2z"/>
		</g>
	</g>
</g>
<path id="_x31_28_4_" fill="#00ACEE" d="M387.1,164.1c-9.9,4.3-20.6,7.3-31.8,8.6c-0.1-0.2-0.2-0.4-0.3-0.6
	c11.8-6.9,21-17.9,25.4-31.1c-3.4,2.1-19.9,11.4-36.1,14.4c-10.5-11.5-25.6-18.8-42.5-18.8c-35.6,0-57.5,29.2-57.5,57.5
	c0,2.2,1,11.3,1.2,11.8c-47.8-1-90.2-24-117.5-59.3c-19.5,35.6,0.9,66.4,15,77.4c-8.2-0.1-15.9-1.9-23-5
	c1.5,27.4,21.3,49.9,47.4,55.5c-10.4,2.9-23,0.7-27.8-0.6c7.7,22.9,28.8,39.6,54,40.9c-38.6,28.3-80.1,25.4-80.8,25.4
	c24.4,14.6,53,23.3,83.6,23.1c112-0.7,169.5-100.1,162.6-171.4C371.4,186.2,381.3,176.3,387.1,164.1z"/>
</svg>
